<svg width="131" height="131" viewBox="0 0 131 131" fill="none" xmlns="http://www.w3.org/2000/svg">
<path d="M22.1953 4.22361C19.8761 2.41701 16.5804 2.63673 14.4809 4.71188L4.71581 14.4773C2.64073 16.5524 2.42101 19.8482 4.20314 22.1919L23.7333 47.582C24.8319 49.0224 26.5652 49.8768 28.3717 49.8768H41.579L68.1889 76.4875C64.6002 83.5675 65.7476 92.454 71.6799 98.362L99.0221 125.705C102.074 128.757 107.029 128.757 110.081 125.705L125.705 110.08C128.757 107.029 128.757 102.073 125.705 99.0212L98.363 71.6781C92.4551 65.77 83.5689 64.5982 76.4892 68.187L49.8793 41.5762V28.393C49.8793 26.562 49.0249 24.853 47.5845 23.7544L22.1953 4.22361ZM7.86505 99.7048C4.76463 102.805 3.00692 107.029 3.00692 111.423C3.00692 120.578 10.4284 128 19.5831 128C23.9774 128 28.2008 126.242 31.3013 123.142L60.0594 94.3826C58.1552 89.2802 57.8623 83.7383 59.1806 78.4894L44.1179 63.4263L7.86505 99.7048ZM128 38.1584C128 35.5949 127.731 33.1048 127.219 30.7122C126.633 27.9779 123.288 27.2699 121.311 29.2474L105.711 44.8477C104.979 45.5801 103.978 45.9951 102.953 45.9951H88.9397C86.7914 45.9951 85.0336 44.2373 85.0336 42.0889V28.0512C85.0336 27.0258 85.4487 26.0249 86.181 25.2925L101.781 9.69223C103.758 7.71474 103.05 4.37009 100.316 3.78417C97.8991 3.27148 95.409 3.00293 92.8457 3.00293C73.4376 3.00293 57.6914 18.7496 57.6914 38.1584V38.3537L78.5154 59.1784C87.304 56.9567 97.0203 59.3004 103.905 66.185L107.737 70.018C119.7 64.4029 128 52.2449 128 38.1584ZM16.678 108.469C16.678 106.915 17.2953 105.425 18.3941 104.326C19.4929 103.227 20.9832 102.61 22.5371 102.61C24.091 102.61 25.5813 103.227 26.6801 104.326C27.7788 105.425 28.3961 106.915 28.3961 108.469C28.3961 110.023 27.7788 111.513 26.6801 112.612C25.5813 113.711 24.091 114.328 22.5371 114.328C20.9832 114.328 19.4929 113.711 18.3941 112.612C17.2953 111.513 16.678 110.023 16.678 108.469Z" fill="#89D6B9" stroke="#176B53" stroke-width="5"/>
</svg>
