<svg width="119" height="48" viewBox="0 0 119 48" fill="none" xmlns="http://www.w3.org/2000/svg">
<g clip-path="url(#clip0_14_79)">
<path d="M39.8272 8.02301L28.2254 1.45597C24.7964 -0.484998 20.5718 -0.484998 17.1429 1.45597L5.54137 8.02301C2.11246 9.96397 0 13.5512 0 17.4331V30.5675C0 34.4494 2.11246 38.0364 5.54137 39.9773L17.1429 46.5444C20.5718 48.4854 24.7964 48.4854 28.2254 46.5444L39.8269 39.9773C43.2558 38.0364 45.3683 34.4494 45.3683 30.5675V17.4331C45.3683 13.5512 43.2561 9.96425 39.8269 8.02301H39.8272ZM43.2497 29.9541C43.2497 33.4733 41.3345 36.7255 38.226 38.4853L27.708 44.4391C24.5994 46.1989 20.7691 46.1989 17.6606 44.4391L7.14255 38.4853C4.03398 36.7255 2.11886 33.4736 2.11886 29.9541V18.0466C2.11886 14.5273 4.03398 11.2751 7.14255 9.51537L17.6606 3.56148C20.7691 1.8017 24.5994 1.8017 27.708 3.56148L38.226 9.51537C41.3345 11.2751 43.2497 14.527 43.2497 18.0466V29.9541Z" fill="white"/>
<path d="M36.6638 10.971L35.9454 10.5644C36.7578 12.7949 37.1995 15.1173 37.2366 17.5372C37.2374 17.5874 37.241 18.8762 37.2352 19.0506C37.2196 19.4713 37.1929 19.891 37.1522 20.3102C37.0228 21.6437 36.7662 22.9535 36.3905 24.2404C35.6407 26.8082 34.4536 29.1653 32.8497 31.3248C31.1035 33.6756 28.8683 35.4057 26.1093 36.4781C24.9008 36.9477 23.6475 37.2462 22.3556 37.3944C21.274 37.5183 20.1922 37.5336 19.1112 37.4176C16.4101 37.1281 13.9689 36.1891 11.7938 34.586C10.7112 33.7881 9.81554 32.8311 9.13811 31.6795C8.52553 30.6377 8.12335 29.5236 7.96193 28.3311C7.61347 25.76 8.22939 23.436 9.8662 21.3913C10.835 20.1811 12.0983 19.4176 13.6575 19.1873C15.2448 18.9529 16.7006 19.2975 17.9982 20.2455C18.6884 20.7498 19.1844 21.3869 19.3979 22.2094C19.6948 23.3536 19.4825 24.3973 18.6887 25.3027C18.0689 26.0095 17.0502 26.2057 16.2381 25.7882C16.1192 25.727 16.004 25.6596 15.8952 25.5483C16.1039 25.6231 16.2915 25.7008 16.4958 25.7246C17.1521 25.8007 17.711 25.6072 18.0917 25.0759C18.8373 24.0352 18.6489 22.6378 17.7318 21.8536C17.3553 21.5316 16.9113 21.3255 16.4351 21.1986C15.0881 20.8393 13.8579 21.0584 12.778 21.9526C12.4034 22.2629 12.1262 22.6506 11.8913 23.0695C11.2881 24.1443 10.9953 25.297 11.0903 26.5184C11.2514 28.592 12.2191 30.2107 14.0271 31.3264C15.1384 32.0122 16.3355 32.4933 17.623 32.749C18.7057 32.964 19.7959 33.0199 20.8974 32.9012C22.5657 32.7211 24.104 32.1906 25.5103 31.2951C26.7043 30.5348 27.6835 29.5628 28.4806 28.4064C29.6896 26.6524 30.573 24.7561 31.1068 22.7047C31.3412 21.8036 31.4973 20.8895 31.5858 19.9631C31.6807 18.9684 31.6913 17.9738 31.6109 16.9789C31.3631 13.9164 30.3951 11.0919 28.6821 8.51591C27.765 7.13707 26.6743 5.91513 25.4207 4.84491C23.0272 4.09914 20.3906 4.35619 18.1649 5.61606L8.70393 10.9715C5.90764 12.5545 4.18511 15.4794 4.18511 18.6451V29.3557C4.18511 32.5214 5.90764 35.4466 8.70393 37.0293L18.1649 42.3848C20.9612 43.9677 24.4062 43.9677 27.2025 42.3848L36.6635 37.0293C39.4598 35.4463 41.1823 32.5214 41.1823 29.3557V18.6451C41.1823 15.4794 39.4598 12.5542 36.6635 10.9715L36.6638 10.971Z" fill="white"/>
<path d="M67.1149 13.0051V9.84497H75.3654V13.0051L74.0665 13.5239C73.8018 13.6418 73.6334 13.9013 73.6334 14.1842V28.7114H67.3553L61.1496 15.6698V24.3721C61.1496 24.655 61.318 24.9146 61.5827 25.0324L62.8335 25.5512V28.7114H54.6311V25.5512L55.8818 25.0324C56.1465 24.9146 56.3149 24.655 56.3149 24.3721V14.1842C56.3149 13.9013 56.1465 13.6418 55.8818 13.5239L54.6311 13.0051V9.84497H62.6651L68.8229 22.7921V14.1842C68.8229 13.9013 68.6545 13.6418 68.3899 13.5239L67.1151 13.0051H67.1149Z" fill="white"/>
<path d="M89.7972 25.1032C89.7972 25.3155 89.9416 25.5041 90.1339 25.5985L91.4568 26.1644V28.7114H85.3471V27.3435C84.361 28.4047 83.0139 28.9472 81.3543 28.9472C77.8185 28.9472 75.2207 26.4002 75.2207 21.6128C75.2207 16.8255 77.8185 14.3257 81.3785 14.3257C83.0863 14.3257 84.3852 14.8682 85.3474 16.0001V14.5614H89.7972V25.1032ZM85.3474 23.3582V20.0801C84.9385 18.8773 84.0003 18.2172 82.7495 18.2172C81.0418 18.2172 79.791 19.42 79.791 21.7075C79.791 23.995 81.0418 25.2214 82.7495 25.2214C83.9282 25.2214 84.9385 24.5138 85.3474 23.3582Z" fill="white"/>
<path d="M101.972 18.146C101.972 17.9337 101.852 17.7214 101.635 17.6273L100.336 17.0848V14.5615H106.326V25.1502C106.326 25.3625 106.446 25.5511 106.638 25.6455L107.961 26.2114V28.7347H101.971V27.3198C101.081 28.3104 99.903 28.9942 98.2673 28.9942C94.9239 28.9942 93.1198 26.9897 93.1198 23.0985V18.146C93.1198 17.9337 92.9995 17.7214 92.8069 17.6273L91.508 17.0848V14.5615H97.4733V21.9903C97.4733 24.4667 98.1707 25.5279 99.7344 25.5279C100.793 25.5279 101.538 24.7262 101.971 23.7356V18.1463L101.972 18.146Z" fill="white"/>
<path d="M110.037 14.5379V10.5522H114.391V14.5379H118.023V16.967L114.391 17.6746V22.5326C114.391 24.1598 115.016 24.938 115.93 24.938C116.507 24.938 117.205 24.4899 117.951 24.207L118.432 27.9803C117.085 28.4518 115.882 28.9471 114.824 28.9471C111.841 28.9471 110.037 26.8009 110.037 22.4382V17.6743L107.92 16.9667V14.5376H110.037V14.5379Z" fill="white"/>
<path d="M54.5801 31.8696V31.675H55.844L57.829 35.7491L59.8006 31.675H61.0644V31.8696L60.4956 31.9733C60.4162 31.9927 60.3634 32.0511 60.3634 32.1291V36.4105C60.3634 36.4883 60.4162 36.5467 60.4956 36.5664L61.0644 36.67V36.8646H59.3043V36.67L59.8668 36.5664C59.9462 36.547 59.999 36.4886 59.999 36.4105V32.077L58.014 36.1704H57.6302L55.6519 32.077V36.4105C55.6519 36.4883 55.7048 36.5533 55.7841 36.5664L56.34 36.67V36.8646H54.5798V36.67L55.1487 36.5664C55.2281 36.547 55.2809 36.4886 55.2809 36.4105V32.1291C55.2809 32.0513 55.2281 31.9929 55.1487 31.9733L54.5798 31.8696H54.5801Z" fill="white"/>
<path d="M65.1997 36.4819C65.1997 36.5403 65.2395 36.5856 65.2991 36.5921L65.9011 36.644V36.8645H64.8491V36.086C64.5646 36.579 64.0155 36.8904 63.3737 36.8904C62.3481 36.8904 61.5607 36.1053 61.5607 34.8924C61.5607 33.6795 62.3481 32.9397 63.3737 32.9397C64.0155 32.9397 64.5646 33.2445 64.8491 33.7507V32.9593H65.1997V36.4819ZM64.8491 35.4829V34.3412C64.6637 33.6795 64.1343 33.2579 63.4396 33.2579C62.5796 33.2579 61.9111 33.9261 61.9111 34.8992C61.9111 35.8723 62.5793 36.5793 63.4396 36.5793C64.1343 36.5793 64.6637 36.1512 64.8491 35.4829Z" fill="white"/>
<path d="M67.1716 36.5856C67.2312 36.5791 67.271 36.5338 67.271 36.4754V33.355C67.271 33.2967 67.2312 33.2514 67.1716 33.2514L66.563 33.193V32.9725H67.615V34.2959C67.9128 33.3943 68.5479 32.8494 69.5471 32.9597V33.3035C68.1775 33.1477 67.7475 34.2116 67.615 35.3533V36.4757C67.615 36.5341 67.6548 36.5794 67.7208 36.5859L68.3228 36.6378V36.8648H66.5627V36.6378L67.1714 36.5859L67.1716 36.5856Z" fill="white"/>
<path d="M69.7322 31.8953V31.6748H70.7909V34.7236H71.4261L72.7163 33.3615C72.7759 33.3031 72.7562 33.2578 72.6766 33.2512L72.0876 33.1994V32.9723H73.8675V33.1994L73.391 33.2512C73.3117 33.2578 73.2257 33.3031 73.1661 33.3615L71.7172 34.8729L73.1002 36.4818C73.153 36.5402 73.239 36.5855 73.3186 36.592L73.8811 36.6439V36.8644H72.9813L71.4133 35.0156H70.7912V36.8644H69.7325V36.6439L70.308 36.592C70.3874 36.5855 70.4402 36.5271 70.4402 36.4493V32.0898C70.4402 32.0121 70.3874 31.9537 70.308 31.9471L69.7325 31.8953H69.7322Z" fill="white"/>
<path d="M77.7186 34.8859V35.1389H74.4302C74.536 36.0083 75.1249 36.5595 75.9521 36.5595C76.6799 36.5595 77.1497 36.2025 77.4342 35.8134L77.5399 36.0989C77.1892 36.527 76.7194 36.8643 75.9056 36.8643C74.8405 36.8643 74.0595 36.0989 74.0595 34.9053C74.0595 33.7117 74.8667 32.9785 75.9056 32.9785C77.0966 32.9785 77.7186 33.8089 77.7186 34.8856V34.8859ZM77.4077 34.86C77.4077 33.9712 76.9115 33.2708 75.9123 33.2708C75.0058 33.2708 74.4369 33.9715 74.4169 34.86H77.4077Z" fill="white"/>
<path d="M78.7111 32.9658V31.7397H79.0618V32.9658H80.5241V33.2578H79.0618V35.2754C79.0618 36.2419 79.2207 36.5923 79.7103 36.5923C79.9288 36.5923 80.1932 36.5339 80.5505 36.4171L80.6235 36.7416C80.2132 36.8584 79.8956 36.9296 79.631 36.9296C78.9494 36.9296 78.7114 36.4624 78.7114 35.2689V33.2578H77.9702V32.9658H78.7114H78.7111Z" fill="white"/>
<path d="M82.1784 36.4428C82.1784 36.5206 82.2313 36.5856 82.3173 36.5921L82.8865 36.6374V36.8644H81.12V36.6374L81.6891 36.5921C81.7751 36.5856 81.828 36.5209 81.828 36.4428V33.3874C81.828 33.3031 81.7751 33.2382 81.6891 33.2316L81.12 33.1863V32.9593H82.1787V36.4428H82.1784ZM82.2711 32.0056C82.2711 32.2133 82.1122 32.317 81.8806 32.317C81.6491 32.317 81.4901 32.2133 81.4901 32.0056C81.4901 31.7979 81.6491 31.6812 81.8806 31.6812C82.1122 31.6812 82.2711 31.7914 82.2711 32.0056Z" fill="white"/>
<path d="M87.3524 36.4753C87.3524 36.5337 87.3922 36.579 87.4518 36.5855L88.0538 36.6374V36.8644H87.0017V34.6134C87.0017 33.6857 86.565 33.2316 85.8306 33.2316C85.1556 33.2316 84.7718 33.7831 84.6065 34.3215V36.4753C84.6065 36.5337 84.6463 36.579 84.7059 36.5855L85.3146 36.6374V36.8644H83.548V36.6374L84.1567 36.5855C84.2163 36.579 84.2561 36.5337 84.2561 36.4753V33.3549C84.2561 33.29 84.2163 33.2513 84.1567 33.2447L83.548 33.1929V32.9658H84.6068V33.7378C84.8517 33.3031 85.2486 32.9333 85.8904 32.9333C86.7902 32.9333 87.3527 33.4911 87.3527 34.5616V36.4753H87.3524Z" fill="white"/>
<path d="M89.4699 35.2559C89.1918 35.0417 89.0399 34.7303 89.0399 34.3022C89.0399 33.4006 89.5957 32.9593 90.6015 32.9659L92.8114 32.979V33.2775L91.5345 33.2644C91.9049 33.4462 92.0969 33.8159 92.0969 34.3024C92.0969 35.0613 91.5743 35.574 90.6149 35.574C90.2642 35.574 89.9731 35.5091 89.7415 35.3923C89.6026 35.6324 89.6026 35.9372 89.7415 36.1643C89.9798 36.119 90.2444 36.0931 90.5422 36.0931C91.6141 36.0931 92.3683 36.3719 92.3683 37.0792C92.3683 37.8771 91.5876 38.156 90.5486 38.156C89.5097 38.156 88.7159 37.8771 88.7159 37.0792C88.7159 36.638 88.9937 36.385 89.4304 36.2358C89.265 35.931 89.2781 35.5287 89.4701 35.2561L89.4699 35.2559ZM90.5484 36.3848C89.761 36.3848 89.0794 36.5144 89.0794 37.0983C89.0794 37.6823 89.761 37.8703 90.5484 37.8703C91.3357 37.8703 92.004 37.6886 92.004 37.0983C92.004 36.5987 91.4482 36.3848 90.5484 36.3848ZM90.6012 33.245C89.7874 33.245 89.3839 33.5954 89.3839 34.3024C89.3839 34.9642 89.9132 35.2949 90.6012 35.2949C91.3819 35.2949 91.7527 34.8408 91.7527 34.3024C91.7527 33.6797 91.4284 33.271 90.6012 33.245Z" fill="white"/>
<path d="M95.5306 36.5596C95.6099 36.5402 95.6628 36.4818 95.6628 36.4038V32.1286C95.6628 32.0509 95.6099 31.9925 95.5306 31.9728L94.9617 31.8691V31.6746H97.3636C98.7861 31.6746 99.878 32.5439 99.878 34.2565C99.878 35.9691 98.7861 36.8644 97.3636 36.8644H94.9617V36.6633L95.5306 36.5596ZM96.0335 31.999V36.5399H97.3633C98.5874 36.5399 99.507 35.7745 99.507 34.2565C99.507 32.7385 98.5874 31.999 97.3633 31.999H96.0335Z" fill="white"/>
<path d="M101.433 36.4428C101.433 36.5206 101.486 36.5856 101.572 36.5921L102.141 36.6374V36.8644H100.374V36.6374L100.943 36.5921C101.029 36.5856 101.082 36.5209 101.082 36.4428V33.3874C101.082 33.3031 101.029 33.2382 100.943 33.2316L100.374 33.1863V32.9593H101.433V36.4428H101.433ZM101.525 32.0056C101.525 32.2133 101.366 32.317 101.135 32.317C100.903 32.317 100.744 32.2133 100.744 32.0056C100.744 31.7979 100.903 31.6812 101.135 31.6812C101.366 31.6812 101.525 31.7914 101.525 32.0056Z" fill="white"/>
<path d="M103.557 35.2559C103.278 35.0417 103.127 34.7303 103.127 34.3022C103.127 33.4006 103.682 32.9593 104.688 32.9659L106.898 32.979V33.2775L105.621 33.2644C105.992 33.4462 106.184 33.8159 106.184 34.3024C106.184 35.0613 105.661 35.574 104.702 35.574C104.351 35.574 104.06 35.5091 103.828 35.3923C103.689 35.6324 103.689 35.9372 103.828 36.1643C104.066 36.119 104.331 36.0931 104.629 36.0931C105.701 36.0931 106.455 36.3719 106.455 37.0792C106.455 37.8771 105.674 38.156 104.635 38.156C103.596 38.156 102.803 37.8771 102.803 37.0792C102.803 36.638 103.08 36.385 103.517 36.2358C103.352 35.931 103.365 35.5287 103.557 35.2561L103.557 35.2559ZM104.635 36.3848C103.848 36.3848 103.166 36.5144 103.166 37.0983C103.166 37.6823 103.848 37.8703 104.635 37.8703C105.422 37.8703 106.091 37.6886 106.091 37.0983C106.091 36.5987 105.535 36.3848 104.635 36.3848ZM104.688 33.245C103.874 33.245 103.471 33.5954 103.471 34.3024C103.471 34.9642 104 35.2949 104.688 35.2949C105.469 35.2949 105.839 34.8408 105.839 34.3024C105.839 33.6797 105.515 33.271 104.688 33.245Z" fill="white"/>
<path d="M108.453 36.4428C108.453 36.5206 108.506 36.5856 108.592 36.5921L109.161 36.6374V36.8644H107.394V36.6374L107.963 36.5921C108.049 36.5856 108.102 36.5209 108.102 36.4428V33.3874C108.102 33.3031 108.049 33.2382 107.963 33.2316L107.394 33.1863V32.9593H108.453V36.4428H108.453ZM108.545 32.0056C108.545 32.2133 108.387 32.317 108.155 32.317C107.923 32.317 107.764 32.2133 107.764 32.0056C107.764 31.7979 107.923 31.6812 108.155 31.6812C108.387 31.6812 108.545 31.7914 108.545 32.0056Z" fill="white"/>
<path d="M110.12 32.9658V31.7397H110.471V32.9658H111.933V33.2578H110.471V35.2754C110.471 36.2419 110.63 36.5923 111.119 36.5923C111.338 36.5923 111.602 36.5339 111.96 36.4171L112.032 36.7416C111.622 36.8584 111.304 36.9296 111.04 36.9296C110.358 36.9296 110.12 36.4624 110.12 35.2689V33.2578H109.379V32.9658H110.12Z" fill="white"/>
<path d="M115.857 36.4819C115.857 36.5403 115.897 36.5856 115.956 36.5921L116.558 36.644V36.8645H115.506V36.086C115.222 36.579 114.673 36.8904 114.031 36.8904C113.005 36.8904 112.218 36.1053 112.218 34.8924C112.218 33.6795 113.005 32.9397 114.031 32.9397C114.673 32.9397 115.222 33.2445 115.506 33.7507V32.9593H115.857V36.4819ZM115.506 35.4829V34.3412C115.321 33.6795 114.792 33.2579 114.097 33.2579C113.237 33.2579 112.568 33.9261 112.568 34.8992C112.568 35.8723 113.237 36.5793 114.097 36.5793C114.792 36.5793 115.321 36.1512 115.506 35.4829Z" fill="white"/>
<path d="M117.22 31.9018V31.6748H118.285V36.4428C118.285 36.5205 118.338 36.5789 118.417 36.5855L119 36.6373V36.8644H117.22V36.6373L117.802 36.5855C117.881 36.5789 117.934 36.5205 117.934 36.4428V32.0964C117.934 32.0186 117.881 31.9602 117.802 31.9537L117.22 31.9018H117.22Z" fill="white"/>
</g>
<defs>
<clipPath id="clip0_14_79">
<rect width="119" height="48" fill="white"/>
</clipPath>
</defs>
</svg>
