<svg width="131" height="131" viewBox="0 0 131 131" fill="none" xmlns="http://www.w3.org/2000/svg">
<path d="M71.3594 3.0055C102.634 3.0055 128 28.3706 128 59.6436C128 62.8906 125.388 65.5028 122.141 65.5028C118.894 65.5028 116.281 62.8906 116.281 59.6436C116.281 34.84 96.1641 14.7237 71.3594 14.7237C68.1123 14.7237 65.5 12.1115 65.5 8.86462C65.5 5.61769 68.1123 3.0055 71.3594 3.0055ZM73.3125 49.8784C75.3845 49.8784 77.3716 50.7015 78.8368 52.1666C80.3019 53.6316 81.125 55.6187 81.125 57.6906C81.125 59.7625 80.3019 61.7496 78.8368 63.2146C77.3716 64.6797 75.3845 65.5028 73.3125 65.5028C71.2405 65.5028 69.2534 64.6797 67.7882 63.2146C66.3231 61.7496 65.5 59.7625 65.5 57.6906C65.5 55.6187 66.3231 53.6316 67.7882 52.1666C69.2534 50.7015 71.2405 49.8784 73.3125 49.8784ZM65.5 32.3011C65.5 29.0542 68.1123 26.442 71.3594 26.442C89.6943 26.442 104.562 41.3095 104.562 59.6436C104.562 62.8906 101.95 65.5028 98.7031 65.5028C95.4561 65.5028 92.8438 62.8906 92.8438 59.6436C92.8438 47.7789 83.2246 38.1602 71.3594 38.1602C68.1123 38.1602 65.5 35.548 65.5 32.3011ZM31.6865 3.34729C36.4229 2.0534 41.3789 4.47028 43.2588 9.0111L53.0244 32.4476C54.6846 36.4269 53.5371 41.0409 50.1924 43.7508L38.1562 53.6136C46.2861 70.8004 60.2021 84.7158 77.3896 92.8453L87.2285 80.8097C89.9629 77.4651 94.5527 76.3177 98.5322 77.9778L121.97 87.743C126.511 89.6228 128.928 94.5786 127.634 99.3147L121.774 120.798C120.627 125.046 116.77 128 112.375 128C51.9746 128 3 79.0275 3 18.6298C3 14.2355 5.9541 10.3782 10.2021 9.2064L31.6865 3.34729Z" fill="#89D6B9" stroke="#176B53" stroke-width="5"/>
</svg>
