<svg width="336" height="117" viewBox="0 0 336 117" fill="none" xmlns="http://www.w3.org/2000/svg">
<rect width="336" height="117" fill="#D9D9D9"/>
<path d="M116.85 60V28.764H106.134V20.784H137.541V28.764H126.768V60H116.85ZM150.05 60.456C147.466 60.456 145.319 60.304 143.609 60C141.899 59.696 140.55 59.202 139.562 58.518C138.574 57.834 137.852 56.922 137.396 55.782C136.94 54.642 136.636 53.217 136.484 51.507C136.37 49.797 136.313 47.764 136.313 45.408C136.313 43.052 136.37 41.038 136.484 39.366C136.636 37.656 136.94 36.231 137.396 35.091C137.852 33.951 138.574 33.039 139.562 32.355C140.55 31.671 141.899 31.196 143.609 30.93C145.319 30.626 147.466 30.474 150.05 30.474C152.672 30.474 154.838 30.626 156.548 30.93C158.258 31.196 159.607 31.671 160.595 32.355C161.583 33.039 162.305 33.951 162.761 35.091C163.217 36.231 163.502 37.656 163.616 39.366C163.768 41.038 163.844 43.052 163.844 45.408C163.844 47.764 163.768 49.797 163.616 51.507C163.502 53.217 163.217 54.642 162.761 55.782C162.305 56.922 161.583 57.834 160.595 58.518C159.607 59.202 158.258 59.696 156.548 60C154.838 60.304 152.672 60.456 150.05 60.456ZM150.05 53.502C151.19 53.502 152.083 53.426 152.729 53.274C153.375 53.122 153.831 52.78 154.097 52.248C154.363 51.716 154.515 50.899 154.553 49.797C154.629 48.695 154.667 47.232 154.667 45.408C154.667 43.584 154.629 42.14 154.553 41.076C154.515 40.012 154.363 39.214 154.097 38.682C153.831 38.15 153.375 37.808 152.729 37.656C152.083 37.504 151.19 37.428 150.05 37.428C148.91 37.428 148.017 37.504 147.371 37.656C146.763 37.808 146.326 38.15 146.06 38.682C145.794 39.214 145.623 40.012 145.547 41.076C145.509 42.14 145.49 43.584 145.49 45.408C145.49 47.232 145.509 48.695 145.547 49.797C145.623 50.899 145.794 51.716 146.06 52.248C146.326 52.78 146.763 53.122 147.371 53.274C148.017 53.426 148.91 53.502 150.05 53.502ZM169.706 60V30.93H178.37L178.598 35.889H179.111C179.643 34.483 180.308 33.381 181.106 32.583C181.942 31.785 182.949 31.234 184.127 30.93C185.305 30.626 186.673 30.474 188.231 30.474V38.853C185.837 38.853 183.956 39.157 182.588 39.765C181.22 40.373 180.251 41.418 179.681 42.9C179.111 44.344 178.826 46.377 178.826 48.999V60H169.706ZM195.742 60V37.884H190.441V30.93H195.742V22.494H204.976V30.93H211.303V37.884H204.976V60H195.742ZM229.085 60.456C226.349 60.456 224.088 60.285 222.302 59.943C220.516 59.601 219.091 59.069 218.027 58.347C217.001 57.587 216.222 56.618 215.69 55.44C215.196 54.262 214.873 52.856 214.721 51.222C214.607 49.588 214.55 47.688 214.55 45.522C214.55 42.9 214.664 40.639 214.892 38.739C215.158 36.839 215.728 35.281 216.602 34.065C217.476 32.849 218.825 31.956 220.649 31.386C222.511 30.778 225.019 30.474 228.173 30.474C230.719 30.474 232.79 30.664 234.386 31.044C235.982 31.386 237.236 31.937 238.148 32.697C239.098 33.419 239.763 34.369 240.143 35.547C240.561 36.725 240.827 38.15 240.941 39.822C241.055 41.456 241.112 43.356 241.112 45.522V47.745H223.613C223.613 49.037 223.67 50.082 223.784 50.88C223.898 51.64 224.202 52.21 224.696 52.59C225.19 52.97 225.95 53.236 226.976 53.388C228.002 53.502 229.427 53.559 231.251 53.559C231.973 53.559 232.828 53.54 233.816 53.502C234.804 53.464 235.83 53.407 236.894 53.331C237.996 53.255 239.022 53.179 239.972 53.103V59.487C239.136 59.677 238.11 59.848 236.894 60C235.716 60.152 234.443 60.266 233.075 60.342C231.707 60.418 230.377 60.456 229.085 60.456ZM232.505 43.926V43.014C232.505 41.646 232.429 40.563 232.277 39.765C232.163 38.967 231.935 38.378 231.593 37.998C231.289 37.58 230.852 37.314 230.282 37.2C229.712 37.086 228.99 37.029 228.116 37.029C227.128 37.029 226.33 37.105 225.722 37.257C225.152 37.371 224.715 37.637 224.411 38.055C224.107 38.473 223.898 39.081 223.784 39.879C223.67 40.677 223.613 41.722 223.613 43.014H233.474L232.505 43.926ZM246.997 60V17.649H256.231V60H246.997ZM263.057 60V17.649H272.291V60H263.057ZM279.003 25.002V17.649H288.408V25.002H279.003ZM279.117 60V30.93H288.351V60H279.117Z" fill="#0F1512"/>
<path d="M23.4031 99V76.984H37.7071V79.352H26.1551V86.68H36.2031V89.08H26.1551V96.632H37.7071V99H23.4031ZM42.2364 99V82.68H44.6044L44.7004 85.016H44.8924C45.0844 84.504 45.3724 84.056 45.7564 83.672C46.1617 83.288 46.6844 82.9893 47.3244 82.776C47.9857 82.5413 48.8284 82.424 49.8524 82.424C51.303 82.424 52.3804 82.6373 53.0844 83.064C53.7884 83.4693 54.279 84.12 54.5564 85.016H54.7484C54.9617 84.504 55.271 84.056 55.6764 83.672C56.0817 83.288 56.6257 82.9893 57.3084 82.776C57.991 82.5413 58.8337 82.424 59.8364 82.424C61.3084 82.424 62.407 82.648 63.1324 83.096C63.8577 83.544 64.3377 84.2373 64.5724 85.176C64.807 86.1147 64.9244 87.32 64.9244 88.792V99H62.3324V89.688C62.3324 88.5787 62.2897 87.704 62.2044 87.064C62.119 86.4027 61.959 85.912 61.7244 85.592C61.4897 85.2507 61.1377 85.0267 60.6684 84.92C60.199 84.8133 59.5697 84.76 58.7804 84.76C57.863 84.76 57.1377 84.888 56.6044 85.144C56.071 85.3787 55.6764 85.7413 55.4204 86.232C55.1857 86.7227 55.0364 87.3307 54.9724 88.056C54.9084 88.7813 54.8764 89.624 54.8764 90.584V99H52.2844V89.688C52.2844 88.5787 52.2417 87.704 52.1564 87.064C52.071 86.4027 51.911 85.912 51.6764 85.592C51.4417 85.2507 51.0897 85.0267 50.6204 84.92C50.151 84.8133 49.5217 84.76 48.7324 84.76C47.815 84.76 47.0897 84.8987 46.5564 85.176C46.023 85.432 45.639 85.8053 45.4044 86.296C45.1697 86.7867 45.0204 87.3947 44.9564 88.12C44.8924 88.8453 44.8604 89.6667 44.8604 90.584V99H42.2364ZM70.4551 105.368V82.68H72.8231L72.9191 85.016H73.1111C73.4311 84.2907 73.8685 83.736 74.4231 83.352C74.9778 82.968 75.6071 82.7227 76.3111 82.616C77.0151 82.488 77.7405 82.424 78.4871 82.424C79.6605 82.424 80.6311 82.552 81.3991 82.808C82.1885 83.064 82.8071 83.512 83.2551 84.152C83.7031 84.7707 84.0231 85.624 84.2151 86.712C84.4071 87.8 84.5031 89.1653 84.5031 90.808C84.5031 92.472 84.4071 93.8587 84.2151 94.968C84.0445 96.056 83.7351 96.9093 83.2871 97.528C82.8391 98.1467 82.2311 98.5947 81.4631 98.872C80.6951 99.128 79.7245 99.256 78.5511 99.256C77.6765 99.256 76.8978 99.1813 76.2151 99.032C75.5325 98.904 74.9351 98.6693 74.4231 98.328C73.9325 97.9867 73.5378 97.5173 73.2391 96.92H73.0791V105.368H70.4551ZM77.4631 96.92C78.4445 96.92 79.2231 96.856 79.7991 96.728C80.3965 96.6 80.8445 96.3333 81.1431 95.928C81.4418 95.5013 81.6445 94.8933 81.7511 94.104C81.8578 93.2933 81.9111 92.2053 81.9111 90.84C81.9111 89.4747 81.8578 88.3867 81.7511 87.576C81.6445 86.7653 81.4418 86.1573 81.1431 85.752C80.8445 85.3467 80.3965 85.08 79.7991 84.952C79.2231 84.8027 78.4445 84.728 77.4631 84.728C76.3751 84.728 75.5111 84.888 74.8711 85.208C74.2525 85.5067 73.8045 85.9867 73.5271 86.648C73.3138 87.16 73.1858 87.768 73.1431 88.472C73.1005 89.176 73.0791 89.9653 73.0791 90.84C73.0791 91.736 73.1005 92.5253 73.1431 93.208C73.1858 93.8693 73.2925 94.424 73.4631 94.872C73.7618 95.6187 74.2311 96.152 74.8711 96.472C75.5111 96.7707 76.3751 96.92 77.4631 96.92ZM95.7941 99.256C94.4501 99.256 93.3301 99.1707 92.4341 99C91.5595 98.8507 90.8661 98.5947 90.3541 98.232C89.8421 97.8693 89.4581 97.368 89.2021 96.728C88.9675 96.088 88.8181 95.288 88.7541 94.328C88.6901 93.3467 88.6581 92.184 88.6581 90.84C88.6581 89.496 88.6901 88.344 88.7541 87.384C88.8181 86.4027 88.9675 85.592 89.2021 84.952C89.4581 84.312 89.8421 83.8107 90.3541 83.448C90.8661 83.0853 91.5595 82.8293 92.4341 82.68C93.3301 82.5093 94.4501 82.424 95.7941 82.424C97.1595 82.424 98.2795 82.5093 99.1541 82.68C100.029 82.8293 100.722 83.0853 101.234 83.448C101.767 83.8107 102.151 84.312 102.386 84.952C102.642 85.592 102.802 86.4027 102.866 87.384C102.93 88.344 102.962 89.496 102.962 90.84C102.962 92.184 102.93 93.3467 102.866 94.328C102.802 95.288 102.642 96.088 102.386 96.728C102.151 97.368 101.767 97.8693 101.234 98.232C100.722 98.5947 100.029 98.8507 99.1541 99C98.2795 99.1707 97.1595 99.256 95.7941 99.256ZM95.7941 97.048C96.9461 97.048 97.8315 96.9733 98.4501 96.824C99.0688 96.6747 99.5061 96.3867 99.7621 95.96C100.039 95.5333 100.199 94.9147 100.242 94.104C100.306 93.272 100.338 92.184 100.338 90.84C100.338 89.496 100.306 88.4187 100.242 87.608C100.199 86.776 100.039 86.1467 99.7621 85.72C99.5061 85.2933 99.0688 85.0053 98.4501 84.856C97.8315 84.7067 96.9461 84.632 95.7941 84.632C94.6635 84.632 93.7781 84.7067 93.1381 84.856C92.5195 85.0053 92.0821 85.2933 91.8261 85.72C91.5701 86.1467 91.4101 86.776 91.3461 87.608C91.2821 88.4187 91.2501 89.496 91.2501 90.84C91.2501 92.184 91.2821 93.272 91.3461 94.104C91.4101 94.9147 91.5701 95.5333 91.8261 95.96C92.0821 96.3867 92.5195 96.6747 93.1381 96.824C93.7781 96.9733 94.6635 97.048 95.7941 97.048ZM93.3621 79.96V79.8L96.5941 75.48H99.4101V75.64L95.2821 79.96H93.3621ZM107.799 99V82.68H110.135L110.263 85.816H110.455C110.732 84.8987 111.127 84.1947 111.639 83.704C112.151 83.2133 112.77 82.8827 113.495 82.712C114.22 82.52 115.02 82.424 115.895 82.424V84.984C114.423 84.984 113.292 85.2187 112.503 85.688C111.714 86.1573 111.17 86.8827 110.871 87.864C110.572 88.8453 110.423 90.0827 110.423 91.576V99H107.799ZM119.485 78.072V75.224H122.269V78.072H119.485ZM119.549 99V82.68H122.173V99H119.549ZM134.138 99.256C132.794 99.256 131.674 99.1707 130.778 99C129.903 98.8507 129.21 98.5947 128.698 98.232C128.186 97.8693 127.802 97.368 127.546 96.728C127.311 96.088 127.162 95.288 127.098 94.328C127.034 93.3467 127.002 92.184 127.002 90.84C127.002 89.496 127.034 88.344 127.098 87.384C127.162 86.4027 127.311 85.592 127.546 84.952C127.802 84.312 128.186 83.8107 128.698 83.448C129.21 83.0853 129.903 82.8293 130.778 82.68C131.674 82.5093 132.794 82.424 134.138 82.424C135.503 82.424 136.623 82.5093 137.498 82.68C138.373 82.8293 139.066 83.0853 139.578 83.448C140.111 83.8107 140.495 84.312 140.73 84.952C140.986 85.592 141.146 86.4027 141.21 87.384C141.274 88.344 141.306 89.496 141.306 90.84C141.306 92.184 141.274 93.3467 141.21 94.328C141.146 95.288 140.986 96.088 140.73 96.728C140.495 97.368 140.111 97.8693 139.578 98.232C139.066 98.5947 138.373 98.8507 137.498 99C136.623 99.1707 135.503 99.256 134.138 99.256ZM134.138 97.048C135.29 97.048 136.175 96.9733 136.794 96.824C137.413 96.6747 137.85 96.3867 138.106 95.96C138.383 95.5333 138.543 94.9147 138.586 94.104C138.65 93.272 138.682 92.184 138.682 90.84C138.682 89.496 138.65 88.4187 138.586 87.608C138.543 86.776 138.383 86.1467 138.106 85.72C137.85 85.2933 137.413 85.0053 136.794 84.856C136.175 84.7067 135.29 84.632 134.138 84.632C133.007 84.632 132.122 84.7067 131.482 84.856C130.863 85.0053 130.426 85.2933 130.17 85.72C129.914 86.1467 129.754 86.776 129.69 87.608C129.626 88.4187 129.594 89.496 129.594 90.84C129.594 92.184 129.626 93.272 129.69 94.104C129.754 94.9147 129.914 95.5333 130.17 95.96C130.426 96.3867 130.863 96.6747 131.482 96.824C132.122 96.9733 133.007 97.048 134.138 97.048ZM159.018 99.256C157.845 99.256 156.863 99.128 156.074 98.872C155.306 98.616 154.698 98.1787 154.25 97.56C153.802 96.92 153.482 96.056 153.29 94.968C153.098 93.88 153.002 92.5147 153.002 90.872C153.002 89.208 153.087 87.832 153.258 86.744C153.45 85.6347 153.77 84.7707 154.218 84.152C154.666 83.5333 155.274 83.096 156.042 82.84C156.81 82.5627 157.781 82.424 158.954 82.424C159.829 82.424 160.607 82.4987 161.29 82.648C161.973 82.776 162.559 83.0107 163.05 83.352C163.562 83.6933 163.967 84.1627 164.266 84.76H164.426V75.224H167.05V99H164.714L164.586 96.664H164.394C164.095 97.4107 163.658 97.976 163.082 98.36C162.527 98.7227 161.898 98.9573 161.194 99.064C160.49 99.192 159.765 99.256 159.018 99.256ZM160.042 96.952C161.13 96.952 161.994 96.8027 162.634 96.504C163.274 96.2053 163.722 95.736 163.978 95.096C164.191 94.4987 164.319 93.848 164.362 93.144C164.405 92.44 164.426 91.608 164.426 90.648C164.426 89.8587 164.405 89.144 164.362 88.504C164.319 87.8427 164.202 87.2667 164.01 86.776C163.733 86.0507 163.274 85.5387 162.634 85.24C161.994 84.92 161.109 84.76 159.978 84.76C159.018 84.76 158.25 84.824 157.674 84.952C157.098 85.08 156.661 85.3573 156.362 85.784C156.063 86.1893 155.861 86.7973 155.754 87.608C155.647 88.3973 155.594 89.4747 155.594 90.84C155.594 92.2053 155.647 93.2933 155.754 94.104C155.861 94.9147 156.063 95.5227 156.362 95.928C156.661 96.3333 157.098 96.6107 157.674 96.76C158.271 96.888 159.061 96.952 160.042 96.952ZM176.933 99.256C175.738 99.256 174.736 99.1173 173.925 98.84C173.136 98.5627 172.538 98.0827 172.133 97.4C171.749 96.7173 171.557 95.7573 171.557 94.52C171.557 93.2827 171.696 92.312 171.973 91.608C172.272 90.8827 172.784 90.3707 173.509 90.072C174.234 89.7733 175.248 89.624 176.549 89.624C176.762 89.624 177.093 89.6347 177.541 89.656C178.01 89.656 178.544 89.6667 179.141 89.688C179.738 89.688 180.336 89.6987 180.933 89.72C181.552 89.72 182.117 89.7307 182.629 89.752V88.728C182.629 87.768 182.565 87.0213 182.437 86.488C182.33 85.9333 182.096 85.528 181.733 85.272C181.37 84.9947 180.858 84.824 180.197 84.76C179.557 84.6747 178.704 84.632 177.637 84.632C177.168 84.632 176.613 84.6533 175.973 84.696C175.333 84.7173 174.704 84.76 174.085 84.824C173.488 84.8667 173.008 84.92 172.645 84.984V82.872C173.456 82.7227 174.362 82.616 175.365 82.552C176.389 82.4667 177.445 82.424 178.533 82.424C179.685 82.424 180.656 82.4987 181.445 82.648C182.256 82.776 182.906 82.9893 183.397 83.288C183.909 83.5867 184.293 83.9813 184.549 84.472C184.805 84.9627 184.976 85.56 185.061 86.264C185.168 86.968 185.221 87.7893 185.221 88.728V99H182.885L182.789 96.696H182.597C182.256 97.4427 181.765 98.008 181.125 98.392C180.506 98.7547 179.824 98.9893 179.077 99.096C178.33 99.2027 177.616 99.256 176.933 99.256ZM177.893 97.112C178.512 97.112 179.088 97.08 179.621 97.016C180.154 96.9307 180.624 96.7813 181.029 96.568C181.434 96.3547 181.754 96.0347 181.989 95.608C182.224 95.16 182.384 94.68 182.469 94.168C182.576 93.6347 182.629 93.016 182.629 92.312V91.48H177.189C176.357 91.48 175.717 91.544 175.269 91.672C174.821 91.8 174.512 92.0667 174.341 92.472C174.192 92.8773 174.117 93.4853 174.117 94.296C174.117 95.0853 174.213 95.6827 174.405 96.088C174.597 96.4933 174.96 96.7707 175.493 96.92C176.048 97.048 176.848 97.112 177.893 97.112ZM196.208 99.256C195.589 99.256 194.928 99.2347 194.224 99.192C193.52 99.1493 192.826 99.096 192.144 99.032C191.461 98.9893 190.842 98.9253 190.288 98.84V96.728C190.8 96.7707 191.29 96.8133 191.76 96.856C192.25 96.8987 192.73 96.9413 193.2 96.984C193.669 97.0053 194.138 97.0267 194.608 97.048C195.077 97.048 195.557 97.048 196.048 97.048C197.157 97.048 197.957 96.9733 198.448 96.824C198.96 96.6533 199.29 96.376 199.44 95.992C199.61 95.608 199.696 95.1067 199.696 94.488C199.696 93.784 199.632 93.272 199.504 92.952C199.397 92.632 199.194 92.4293 198.896 92.344C198.618 92.2373 198.192 92.152 197.616 92.088L193.392 91.608C192.389 91.5013 191.632 91.288 191.12 90.968C190.608 90.6267 190.256 90.1467 190.064 89.528C189.872 88.9093 189.776 88.1307 189.776 87.192C189.776 86.1253 189.925 85.272 190.224 84.632C190.522 83.992 190.949 83.512 191.504 83.192C192.058 82.872 192.73 82.6693 193.52 82.584C194.309 82.4773 195.194 82.424 196.176 82.424C196.73 82.424 197.317 82.4453 197.936 82.488C198.554 82.5307 199.162 82.584 199.76 82.648C200.357 82.712 200.869 82.7867 201.296 82.872V84.984C200.741 84.8987 200.176 84.8347 199.6 84.792C199.045 84.728 198.469 84.6853 197.872 84.664C197.296 84.6427 196.709 84.632 196.112 84.632C195.301 84.632 194.608 84.6747 194.032 84.76C193.456 84.8453 193.018 85.0587 192.72 85.4C192.442 85.7413 192.304 86.3067 192.304 87.096C192.304 87.7147 192.346 88.184 192.432 88.504C192.538 88.8027 192.741 89.016 193.04 89.144C193.338 89.2507 193.754 89.336 194.288 89.4L198.704 89.88C199.578 89.9653 200.261 90.136 200.752 90.392C201.264 90.6267 201.626 91.0533 201.84 91.672C202.074 92.2907 202.192 93.2187 202.192 94.456C202.192 95.48 202.064 96.312 201.808 96.952C201.573 97.5707 201.2 98.0507 200.688 98.392C200.176 98.7333 199.546 98.9573 198.8 99.064C198.053 99.192 197.189 99.256 196.208 99.256ZM220.22 99.256C218.982 99.256 217.958 99.1493 217.148 98.936C216.358 98.7227 215.718 98.4027 215.228 97.976C214.758 97.5493 214.406 97.0053 214.172 96.344C213.937 95.6827 213.777 94.8933 213.692 93.976C213.628 93.0587 213.596 92.0133 213.596 90.84C213.596 89.624 213.638 88.5573 213.724 87.64C213.83 86.7227 214.012 85.9333 214.268 85.272C214.545 84.5893 214.918 84.0453 215.388 83.64C215.878 83.2347 216.508 82.936 217.276 82.744C218.044 82.5307 218.993 82.424 220.124 82.424C220.87 82.424 221.649 82.4667 222.46 82.552C223.292 82.616 223.974 82.712 224.508 82.84V84.952C224.017 84.8667 223.409 84.792 222.684 84.728C221.98 84.664 221.34 84.632 220.764 84.632C219.761 84.632 218.95 84.7173 218.332 84.888C217.734 85.0587 217.276 85.368 216.956 85.816C216.657 86.264 216.454 86.8933 216.348 87.704C216.241 88.5147 216.188 89.56 216.188 90.84C216.188 92.1413 216.241 93.208 216.348 94.04C216.454 94.8507 216.668 95.48 216.988 95.928C217.329 96.3547 217.798 96.6533 218.396 96.824C219.014 96.9733 219.825 97.048 220.828 97.048C221.425 97.048 222.076 97.016 222.78 96.952C223.484 96.888 224.113 96.8133 224.668 96.728V98.84C224.134 98.9467 223.452 99.0427 222.62 99.128C221.788 99.2133 220.988 99.256 220.22 99.256ZM228.986 99V75.224H231.61V84.824H231.77C231.984 84.376 232.293 83.9707 232.698 83.608C233.104 83.2453 233.658 82.968 234.362 82.776C235.066 82.5627 235.962 82.456 237.05 82.456C238.245 82.456 239.205 82.584 239.93 82.84C240.677 83.0747 241.242 83.448 241.626 83.96C242.032 84.472 242.298 85.1333 242.426 85.944C242.554 86.7333 242.618 87.6827 242.618 88.792V99H240.026V89.688C240.026 88.5787 239.973 87.704 239.866 87.064C239.781 86.4027 239.6 85.912 239.322 85.592C239.045 85.2507 238.64 85.0267 238.106 84.92C237.573 84.8133 236.869 84.76 235.994 84.76C234.949 84.76 234.128 84.8987 233.53 85.176C232.933 85.432 232.496 85.816 232.218 86.328C231.941 86.8187 231.77 87.4267 231.706 88.152C231.642 88.856 231.61 89.6667 231.61 90.584V99H228.986ZM252.527 99.256C251.332 99.256 250.329 99.1173 249.519 98.84C248.729 98.5627 248.132 98.0827 247.727 97.4C247.343 96.7173 247.151 95.7573 247.151 94.52C247.151 93.2827 247.289 92.312 247.567 91.608C247.865 90.8827 248.377 90.3707 249.103 90.072C249.828 89.7733 250.841 89.624 252.143 89.624C252.356 89.624 252.687 89.6347 253.135 89.656C253.604 89.656 254.137 89.6667 254.735 89.688C255.332 89.688 255.929 89.6987 256.527 89.72C257.145 89.72 257.711 89.7307 258.223 89.752V88.728C258.223 87.768 258.159 87.0213 258.031 86.488C257.924 85.9333 257.689 85.528 257.327 85.272C256.964 84.9947 256.452 84.824 255.791 84.76C255.151 84.6747 254.297 84.632 253.231 84.632C252.761 84.632 252.207 84.6533 251.567 84.696C250.927 84.7173 250.297 84.76 249.679 84.824C249.081 84.8667 248.601 84.92 248.239 84.984V82.872C249.049 82.7227 249.956 82.616 250.959 82.552C251.983 82.4667 253.039 82.424 254.127 82.424C255.279 82.424 256.249 82.4987 257.039 82.648C257.849 82.776 258.5 82.9893 258.991 83.288C259.503 83.5867 259.887 83.9813 260.143 84.472C260.399 84.9627 260.569 85.56 260.655 86.264C260.761 86.968 260.815 87.7893 260.815 88.728V99H258.479L258.383 96.696H258.191C257.849 97.4427 257.359 98.008 256.719 98.392C256.1 98.7547 255.417 98.9893 254.671 99.096C253.924 99.2027 253.209 99.256 252.527 99.256ZM253.487 97.112C254.105 97.112 254.681 97.08 255.215 97.016C255.748 96.9307 256.217 96.7813 256.623 96.568C257.028 96.3547 257.348 96.0347 257.583 95.608C257.817 95.16 257.977 94.68 258.063 94.168C258.169 93.6347 258.223 93.016 258.223 92.312V91.48H252.783C251.951 91.48 251.311 91.544 250.863 91.672C250.415 91.8 250.105 92.0667 249.935 92.472C249.785 92.8773 249.711 93.4853 249.711 94.296C249.711 95.0853 249.807 95.6827 249.999 96.088C250.191 96.4933 250.553 96.7707 251.087 96.92C251.641 97.048 252.441 97.112 253.487 97.112ZM270.145 99L264.161 82.68H266.881L271.681 96.28H271.937L276.705 82.68H279.393L273.409 99H270.145ZM289.361 99.256C288.038 99.256 286.929 99.1707 286.033 99C285.158 98.8293 284.454 98.552 283.921 98.168C283.388 97.7627 282.982 97.24 282.705 96.6C282.428 95.9387 282.246 95.1387 282.161 94.2C282.076 93.2613 282.033 92.152 282.033 90.872C282.033 89.3573 282.097 88.0667 282.225 87C282.353 85.912 282.641 85.0373 283.089 84.376C283.558 83.6933 284.284 83.2027 285.265 82.904C286.246 82.584 287.569 82.424 289.233 82.424C290.492 82.424 291.516 82.52 292.305 82.712C293.116 82.904 293.756 83.2027 294.225 83.608C294.694 84.0133 295.036 84.5573 295.249 85.24C295.484 85.9013 295.633 86.7013 295.697 87.64C295.761 88.5573 295.793 89.624 295.793 90.84V91.704H284.625C284.625 92.8133 284.678 93.72 284.785 94.424C284.892 95.128 285.105 95.672 285.425 96.056C285.766 96.44 286.289 96.7067 286.993 96.856C287.718 97.0053 288.7 97.08 289.937 97.08C290.449 97.08 291.014 97.0693 291.633 97.048C292.252 97.0053 292.87 96.952 293.489 96.888C294.108 96.824 294.662 96.76 295.153 96.696V98.808C294.705 98.8933 294.15 98.968 293.489 99.032C292.849 99.096 292.166 99.1493 291.441 99.192C290.737 99.2347 290.044 99.256 289.361 99.256ZM293.265 90.392V89.528C293.265 88.4187 293.201 87.544 293.073 86.904C292.945 86.2427 292.721 85.752 292.401 85.432C292.102 85.0907 291.686 84.8667 291.153 84.76C290.62 84.6533 289.958 84.6 289.169 84.6C288.145 84.6 287.334 84.6747 286.737 84.824C286.14 84.952 285.692 85.1973 285.393 85.56C285.094 85.9227 284.892 86.4453 284.785 87.128C284.678 87.8107 284.625 88.7173 284.625 89.848H293.873L293.265 90.392ZM306.02 99.256C305.401 99.256 304.74 99.2347 304.036 99.192C303.332 99.1493 302.639 99.096 301.956 99.032C301.273 98.9893 300.655 98.9253 300.1 98.84V96.728C300.612 96.7707 301.103 96.8133 301.572 96.856C302.063 96.8987 302.543 96.9413 303.012 96.984C303.481 97.0053 303.951 97.0267 304.42 97.048C304.889 97.048 305.369 97.048 305.86 97.048C306.969 97.048 307.769 96.9733 308.26 96.824C308.772 96.6533 309.103 96.376 309.252 95.992C309.423 95.608 309.508 95.1067 309.508 94.488C309.508 93.784 309.444 93.272 309.316 92.952C309.209 92.632 309.007 92.4293 308.708 92.344C308.431 92.2373 308.004 92.152 307.428 92.088L303.204 91.608C302.201 91.5013 301.444 91.288 300.932 90.968C300.42 90.6267 300.068 90.1467 299.876 89.528C299.684 88.9093 299.588 88.1307 299.588 87.192C299.588 86.1253 299.737 85.272 300.036 84.632C300.335 83.992 300.761 83.512 301.316 83.192C301.871 82.872 302.543 82.6693 303.332 82.584C304.121 82.4773 305.007 82.424 305.988 82.424C306.543 82.424 307.129 82.4453 307.748 82.488C308.367 82.5307 308.975 82.584 309.572 82.648C310.169 82.712 310.681 82.7867 311.108 82.872V84.984C310.553 84.8987 309.988 84.8347 309.412 84.792C308.857 84.728 308.281 84.6853 307.684 84.664C307.108 84.6427 306.521 84.632 305.924 84.632C305.113 84.632 304.42 84.6747 303.844 84.76C303.268 84.8453 302.831 85.0587 302.532 85.4C302.255 85.7413 302.116 86.3067 302.116 87.096C302.116 87.7147 302.159 88.184 302.244 88.504C302.351 88.8027 302.553 89.016 302.852 89.144C303.151 89.2507 303.567 89.336 304.1 89.4L308.516 89.88C309.391 89.9653 310.073 90.136 310.564 90.392C311.076 90.6267 311.439 91.0533 311.652 91.672C311.887 92.2907 312.004 93.2187 312.004 94.456C312.004 95.48 311.876 96.312 311.62 96.952C311.385 97.5707 311.012 98.0507 310.5 98.392C309.988 98.7333 309.359 98.9573 308.612 99.064C307.865 99.192 307.001 99.256 306.02 99.256Z" fill="#0F1512"/>
<path d="M74.4375 49.125C84.6891 49.125 93 40.8141 93 30.5625C93 20.3109 84.6891 12 74.4375 12C64.1859 12 55.875 20.3109 55.875 30.5625C55.875 32.5348 56.1809 34.4438 56.7504 36.2262L39.7383 53.2383C39.2637 53.7129 39 54.3563 39 55.0312V63.4688C39 64.8715 40.1285 66 41.5312 66H49.9688C51.3715 66 52.5 64.8715 52.5 63.4688V59.25H56.7188C58.1215 59.25 59.25 58.1215 59.25 56.7188V52.5H63.4688C64.1437 52.5 64.7871 52.2363 65.2617 51.7617L68.7738 48.2496C70.5562 48.8191 72.4652 49.125 74.4375 49.125ZM78.6562 22.125C79.7751 22.125 80.8482 22.5695 81.6394 23.3606C82.4305 24.1518 82.875 25.2249 82.875 26.3438C82.875 27.4626 82.4305 28.5357 81.6394 29.3269C80.8482 30.118 79.7751 30.5625 78.6562 30.5625C77.5374 30.5625 76.4643 30.118 75.6731 29.3269C74.882 28.5357 74.4375 27.4626 74.4375 26.3438C74.4375 25.2249 74.882 24.1518 75.6731 23.3606C76.4643 22.5695 77.5374 22.125 78.6562 22.125Z" fill="#0F1512"/>
</svg>
